:SAMPLES-PER-SECOND 30
:FULLY-SPECIFIED
:DEGREES
519
root  -60.0115 40.4716 17.0248 -174.864 15.6819 174.479
RightUpLeg  -16.3105 -23.2646 -17.4755
RightLeg  12.654 -16.2055 -2.13429
RightFoot  5.99109 -0.637307 4.45487
RightToes  0.00048216 0.542163 -0.142577
Spine  42.3549 0.750498 -2.76809
Spine1  7.91048 0.130697 -1.22987
HEad  -16.8588 -8.66999 3.66568
LeftShoulder1  11.1113 -17.8498 -45.3451
LeftArm  -13.9584 6.22408 -19.7291
LeftForeArm  14.0885 -9.09886 -4.7948
LeftHand  -0.25398 0.0180481 5.50724
RightShoulder  5.66476 11.369 32.1384
RightArm  0.498394 15.8693 34.414
RightForeArm  -10.2451 21.1199 5.60137
RightHand  -2.34171 5.82885 -24.267
LeftUpLeg  -14.5352 11.6792 5.77842
LeftLeg  2.58743 42.7219 -8.35969
LeftFoot  7.53212 -0.429611 2.3134
LeftToes  1.06246e-005 4.65856e-005 -8.18501e-006
520
root  -59.2912 40.5137 17.0248 -174.827 17.5854 174.833
RightUpLeg  -17.9149 -25.0635 -15.0399
RightLeg  14.1498 -12.5794 -2.19645
RightFoot  4.619 -0.56464 4.23245
RightToes  0.00048216 0.542163 -0.142577
Spine  40.1454 0.725566 -2.30203
Spine1  7.95245 0.389665 -1.34436
HEad  -15.9907 -8.01852 2.77859
LeftShoulder1  11.02 -17.3152 -46.1584
LeftArm  -14.1532 9.9627 -19.5027
LeftForeArm  12.5984 -10.9723 -4.55359
LeftHand  -0.25398 0.0180481 5.50724
RightShoulder  5.81256 11.4315 32.972
RightArm  0.660764 12.6925 33.3993
RightForeArm  -11.0194 20.132 5.86543
RightHand  -2.38238 5.94963 -24.4202
LeftUpLeg  -13.1184 11.4885 7.12405
LeftLeg  0.481246 44.6326 -8.4133
LeftFoot  9.32012 -0.236688 0.990124
LeftToes  1.06246e-005 4.65856e-005 -8.18501e-006
521
root  -58.5145 40.5014 17.0308 -174.895 20.0001 175.308
RightUpLeg  -19.93 -25.9482 -12.0686
RightLeg  16.4958 -9.01876 -2.82943
RightFoot  2.5669 -0.349919 3.01377
RightToes  0.00048216 0.542163 -0.142577
Spine  38.1448 0.790638 -2.03827
Spine1  7.76236 0.683176 -1.51644
HEad  -14.4648 -7.30542 1.91939
LeftShoulder1  10.8682 -16.8704 -46.5307
LeftArm  -14.1925 13.7563 -20.0302
LeftForeArm  11.6782 -12.7124 -4.30211
LeftHand  -0.25398 0.0180481 5.50724
RightShoulder  5.83865 11.2377 33.6581
RightArm  0.865668 10.141 32.9618
RightForeArm  -10.7897 18.5292 6.34667
RightHand  -2.49186 6.39998 -24.5699
LeftUpLeg  -11.4971 11.4187 8.72778
LeftLeg  -1.13299 46.7854 -8.16759
LeftFoot  10.7028 0.0612254 -0.655058
LeftToes  1.06246e-005 4.65856e-005 -8.18501e-006
522
root  -57.6597 40.4439 17.0392 -175.472 21.7563 175.627
RightUpLeg  -20.3712 -25.0681 -10.4562
RightLeg  18.8046 -7.83383 -3.21246
RightFoot  0.39849 -0.261227 2.58161
RightToes  0.00048216 0.542163 -0.142577
Spine  36.5227 0.5736 -1.92972
Spine1  7.63953 0.361776 -0.968258
HEad  -12.5996 -6.56101 1.00185
LeftShoulder1  10.7127 -16.4317 -46.8866
LeftArm  -13.7408 17.2385 -20.6715
LeftForeArm  11.6931 -14.2508 -4.17555
LeftHand  -0.25398 0.0180481 5.50724
RightShoulder  5.74113 10.8386 34.078
RightArm  0.527866 7.50174 33.3201
RightForeArm  -9.84279 17.2969 6.72264
RightHand  -2.45871 6.25029 -24.5523
LeftUpLeg  -9.37671 11.4795 10.3649
LeftLeg  -2.58561 47.8874 -8.14351
LeftFoot  11.663 0.352 -2.08059
LeftToes  1.06246e-005 4.65856e-005 -8.18501e-006
523
root  -56.7257 40.3804 17.0292 -176.299 22.8506 175.861
RightUpLeg  -19.8721 -24.338 -9.44241
RightLeg  20.8027 -7.21353 -3.22797
RightFoot  -1.82157 -0.228434 2.58795
RightToes  0.00048216 0.542163 -0.142577
Spine  34.8991 0.0675364 -1.70388
Spine1  7.76942 -0.42365 0.0709484
HEad  -10.8899 -5.7362 0.122524
LeftShoulder1  10.6028 -16.0446 -47.3352
LeftArm  -12.7067 20.105 -20.9865
LeftForeArm  12.8028 -15.6815 -4.13381
LeftHand  -0.25398 0.0180481 5.50724
RightShoulder  5.71865 10.5305 34.7884
RightArm  0.353356 4.19573 33.7486
RightForeArm  -9.5615 17.1948 6.71606
RightHand  -2.30224 5.57137 -24.4064
LeftUpLeg  -6.92513 11.8847 12.1883
LeftLeg  -4.00464 48.3231 -8.57054
LeftFoot  12.6085 0.735957 -3.82411
LeftToes  1.06246e-005 4.65856e-005 -8.18501e-006
524
root  -55.7196 40.3141 16.9849 -177.067 24.2706 176.137
RightUpLeg  -19.4333 -23.4398 -8.15706
RightLeg  22.7574 -6.61544 -3.25472
RightFoot  -4.11303 -0.149327 1.89898
RightToes  0.00048216 0.542163 -0.142577
Spine  32.9809 -0.401607 -1.30539
Spine1  8.05586 -0.975625 0.572825
HEad  -9.2835 -4.90791 -0.484853
LeftShoulder1  10.4138 -15.733 -47.2424
LeftArm  -11.9625 22.4312 -21.5003
LeftForeArm  14.9454 -16.9986 -4.01044
LeftHand  -0.25398 0.0180481 5.50724
RightShoulder  5.89468 10.4498 36.2544
RightArm  1.45301 0.443252 33.5164
RightForeArm  -10.4926 17.8325 6.5824
RightHand  -2.15366 4.97668 -24.1401
LeftUpLeg  -4.52064 12.8274 14.3514
LeftLeg  -4.1942 48.8475 -8.54405
LeftFoot  12.5704 1.28621 -6.46753
LeftToes  1.06246e-005 4.65856e-005 -8.18501e-006
525
root  -54.6648 40.2375 16.9241 -178.01 26.282 176.258
RightUpLeg  -18.8198 -21.6143 -6.93166
RightLeg  24.6765 -6.53824 -3.49241
RightFoot  -6.34698 -0.0712127 0.643853
RightToes  0.00048216 0.542163 -0.142577
Spine  31.1175 -0.703312 -1.07242
Spine1  8.33653 -1.19308 0.378031
HEad  -7.58013 -4.06994 -0.925261
LeftShoulder1  10.0674 -15.3773 -46.5151
LeftArm  -12.3161 24.2984 -22.6215
LeftForeArm  17.3197 -18.1655 -3.79999
LeftHand  -0.25398 0.0180481 5.50724
RightShoulder  6.13459 10.446 37.9348
RightArm  3.79317 -3.07359 32.9297
RightForeArm  -11.5021 18.3109 6.58636
RightHand  -1.96933 4.36073 -23.4753
LeftUpLeg  -2.63538 13.9576 16.4035
LeftLeg  -1.61366 47.9386 -6.65082
LeftFoot  9.57539 1.47863 -8.30637
LeftToes  1.06246e-005 4.65856e-005 -8.18501e-006
526
root  -53.6162 40.1927 16.8717 -179.419 28.1105 175.964
RightUpLeg  -17.4376 -19.828 -6.23724
RightLeg  26.0218 -6.63823 -3.74122
RightFoot  -8.30835 -0.0433077 -0.474723
RightToes  0.00048216 0.542163 -0.142577
Spine  29.7987 -1.03674 -1.18013
Spine1  8.48204 -1.56114 0.278596
HEad  -5.98883 -3.11979 -1.48576
LeftShoulder1  9.72881 -14.9489 -45.9817
LeftArm  -13.2237 25.5201 -23.805
LeftForeArm  18.7336 -19.3442 -3.66362
LeftHand  -0.25398 0.0180481 5.50724
RightShoulder  6.2368 10.3259 39.0102
RightArm  6.2332 -6.04884 32.6253
RightForeArm  -11.1066 18.4226 6.64215
RightHand  -1.63436 3.18074 -22.1643
LeftUpLeg  -1.73125 14.5086 17.5015
LeftLeg  3.06263 43.2596 -3.2437
LeftFoot  3.92489 0.910401 -6.82602
LeftToes  1.06246e-005 4.65856e-005 -8.18501e-006
527
root  -52.6369 40.2025 16.8158 178.963 29.3259 175.425
RightUpLeg  -15.4797 -18.7633 -5.95165
RightLeg  26.6445 -6.60186 -3.81767
RightFoot  -9.94287 -0.0510897 -1.30809
RightToes  0.00048216 0.542163 -0.142577
Spine  28.9555 -1.5287 -1.21966
Spine1  8.49496 -2.16807 0.595038
HEad  -4.7891 -2.12848 -2.14376
LeftShoulder1  9.58182 -14.6087 -46.1422
LeftArm  -13.6625 25.8843 -24.467
LeftForeArm  19.0171 -20.7048 -3.6924
LeftHand  -0.25398 0.0180481 5.50724
RightShoulder  6.1796 10.0782 39.3923
RightArm  7.71457 -8.55726 32.6055
RightForeArm  -8.94783 18.369 6.61049
RightHand  -1.23343 1.63509 -20.4029
LeftUpLeg  -2.24652 16.1797 17.1179
LeftLeg  8.44233 33.0158 0.313446
LeftFoot  -1.39916 0.297477 -3.3974
LeftToes  1.06246e-005 4.65856e-005 -8.18501e-006
528
root  -51.7595 40.2315 16.7109 177.652 30.4906 175.122
RightUpLeg  -13.4779 -17.9297 -5.55622
RightLeg  26.7773 -6.42429 -3.74383
RightFoot  -11.2828 -0.0750025 -1.87354
RightToes  0.00048216 0.542163 -0.142577
Spine  28.1091 -1.9957 -0.656337
Spine1  8.50349 -2.57523 1.023
HEad  -3.83471 -1.35027 -2.73709
LeftShoulder1  9.56664 -14.4053 -46.6048
LeftArm  -13.691 25.4406 -24.8986
LeftForeArm  19.2721 -22.1735 -3.81936
LeftHand  -0.25398 0.0180481 5.50724
RightShoulder  6.06674 9.84412 39.347
RightArm  7.98638 -10.5764 32.6081
RightForeArm  -5.8419 18.0053 6.60617
RightHand  -0.942451 0.472927 -18.6619
LeftUpLeg  -4.27874 22.239 15.35
LeftLeg  14.405 16.5769 3.11826
LeftFoot  -4.28565 0.173216 -2.49083
LeftToes  1.06246e-005 4.65856e-005 -8.18501e-006
529
root  -50.9475 40.2616 16.5363 176.776 32.1605 175.14
RightUpLeg  -11.5024 -17.0429 -4.91345
RightLeg  26.3803 -5.89546 -3.40913
RightFoot  -12.3665 -0.102202 -2.10053
RightToes  0.00048216 0.542163 -0.142577
Spine  26.9872 -2.15501 0.260735
Spine1  8.62507 -2.55564 1.49985
HEad  -2.8157 -0.922827 -3.33823
LeftShoulder1  9.5095 -14.1741 -46.9407
LeftArm  -13.9937 24.4974 -25.5797
LeftForeArm  20.4115 -23.6469 -3.98881
LeftHand  -0.25398 0.0180481 5.50724
RightShoulder  5.93916 9.70761 38.8737
RightArm  7.13711 -11.9404 32.6924
RightForeArm  -2.64266 17.0289 6.82587
RightHand  -0.785813 -0.123892 -17.2859
LeftUpLeg  -6.84509 23.5404 13.3413
LeftLeg  20.9388 6.4511 3.3104
LeftFoot  -5.10481 0.291656 -4.76582
LeftToes  1.06246e-005 4.65856e-005 -8.18501e-006
530
root  -50.1206 40.329 16.3145 176.159 34.188 175.066
RightUpLeg  -9.39023 -16.6466 -4.39161
RightLeg  25.1561 -4.64735 -2.61845
RightFoot  -13.2199 -0.126545 -2.26041
RightToes  0.00048216 0.542163 -0.142577
Spine  25.5925 -1.94697 0.837727
Spine1  8.83707 -2.26209 2.01759
HEad  -1.70262 -0.758911 -4.03293
LeftShoulder1  9.37353 -13.8573 -47.1171
LeftArm  -14.4878 23.5027 -26.3697
LeftForeArm  22.0558 -25.2861 -4.24774
LeftHand  -0.25398 0.0180481 5.50724
RightShoulder  5.78704 9.59459 38.1321
RightArm  5.266 -12.6039 32.8765
RightForeArm  0.353621 15.5602 7.20422
RightHand  -0.683419 -0.570444 -16.3787
LeftUpLeg  -9.25028 21.4017 11.0759
LeftLeg  26.7863 3.60465 2.34149
LeftFoot  -5.23492 0.398478 -6.87453
LeftToes  1.06246e-005 4.65856e-005 -8.18501e-006
